# xmcd CD database file
#
# Track frame offsets:
#	182
#	12755
#	20765
#	34860
#	44687
#	57212
#	74560
#	88847
#	102810
#	120830
#	131245
#	144027
#	154990
#	168752
#	179820
#	194325
#	201950
#	217262
#	225500
#	238197
#	246252
#	259340
#	272680
#
# Disc length: 3737 seconds
#
# Revision: 0
# Processed by: cddbd v1.5.1PL2 Copyright (c) Steve Scherf et al.
# Submitted via: CDex 1.51
#
DISCID=590e9717
DTITLE=Blind Willie McTell - Warner Blues
DYEAR=1900
DGENRE=Blues
TTITLE0=Broke down engine blues
TTITLE1=Baby, it must be love
TTITLE2=Dying crapshooter's blues
TTITLE3=Don't forget it
TTITLE4=Blues around midnight
TTITLE5=Kill it kid
TTITLE6=On the cooling board
TTITLE7=Pal of mine
TTITLE8=I got to cross the river jordan
TTITLE9=A married man's a fool
TTITLE10=Pinetop's boogie woogie
TTITLE11=Salty dog
TTITLE12=Little delia
TTITLE13=Beedle um bum
TTITLE14=You got to die
TTITLE15=That will never happen no more
TTITLE16=Pearly gates
TTITLE17=Wabash connonball
TTITLE18=Last dime blues
TTITLE19=A to z blues
TTITLE20=The razor ball
TTITLE21=Motherless children have a hard time
TTITLE22=Goodbye blues
EXTD=
EXTT0=
EXTT1=
EXTT2=
EXTT3=
EXTT4=
EXTT5=
EXTT6=
EXTT7=
EXTT8=
EXTT9=
EXTT10=
EXTT11=
EXTT12=
EXTT13=
EXTT14=
EXTT15=
EXTT16=
EXTT17=
EXTT18=
EXTT19=
EXTT20=
EXTT21=
EXTT22=
PLAYORDER=
